<mxfile host="app.diagrams.net" agent="Mozilla/5.0 (Macintosh; Intel Mac OS X 10_15_7) AppleWebKit/537.36 (KHTML, like Gecko) Chrome/129.0.0.0 Safari/537.36" version="24.8.0">
  <diagram name="第 1 页" id="QQPeSfdHHbTasrYbq7Ir">
    <mxGraphModel dx="1026" dy="650" grid="1" gridSize="10" guides="1" tooltips="1" connect="1" arrows="1" fold="1" page="1" pageScale="1" pageWidth="827" pageHeight="1169" math="0" shadow="0">
      <root>
        <mxCell id="0" />
        <mxCell id="1" parent="0" />
        <mxCell id="PJHzrprBZmVnapLB5ji3-3" value="" style="edgeStyle=orthogonalEdgeStyle;rounded=0;orthogonalLoop=1;jettySize=auto;html=1;" edge="1" parent="1" source="PJHzrprBZmVnapLB5ji3-1" target="PJHzrprBZmVnapLB5ji3-2">
          <mxGeometry relative="1" as="geometry" />
        </mxCell>
        <mxCell id="PJHzrprBZmVnapLB5ji3-1" value="标签分类重命名" style="ellipse;whiteSpace=wrap;html=1;" vertex="1" parent="1">
          <mxGeometry x="320" y="140" width="100" height="50" as="geometry" />
        </mxCell>
        <mxCell id="PJHzrprBZmVnapLB5ji3-5" value="" style="edgeStyle=orthogonalEdgeStyle;rounded=0;orthogonalLoop=1;jettySize=auto;html=1;" edge="1" parent="1" source="PJHzrprBZmVnapLB5ji3-2" target="PJHzrprBZmVnapLB5ji3-4">
          <mxGeometry relative="1" as="geometry" />
        </mxCell>
        <mxCell id="PJHzrprBZmVnapLB5ji3-7" value="" style="edgeStyle=orthogonalEdgeStyle;rounded=0;orthogonalLoop=1;jettySize=auto;html=1;" edge="1" parent="1" source="PJHzrprBZmVnapLB5ji3-2" target="PJHzrprBZmVnapLB5ji3-6">
          <mxGeometry relative="1" as="geometry" />
        </mxCell>
        <mxCell id="PJHzrprBZmVnapLB5ji3-2" value="校验分类是否存在" style="rhombus;whiteSpace=wrap;html=1;" vertex="1" parent="1">
          <mxGeometry x="310" y="240" width="120" height="75" as="geometry" />
        </mxCell>
        <mxCell id="PJHzrprBZmVnapLB5ji3-4" value="返回标签不存在" style="whiteSpace=wrap;html=1;" vertex="1" parent="1">
          <mxGeometry x="130" y="258.75" width="120" height="37.5" as="geometry" />
        </mxCell>
        <mxCell id="PJHzrprBZmVnapLB5ji3-9" value="" style="edgeStyle=orthogonalEdgeStyle;rounded=0;orthogonalLoop=1;jettySize=auto;html=1;" edge="1" parent="1" source="PJHzrprBZmVnapLB5ji3-6" target="PJHzrprBZmVnapLB5ji3-8">
          <mxGeometry relative="1" as="geometry" />
        </mxCell>
        <mxCell id="PJHzrprBZmVnapLB5ji3-6" value="修改分类表信息" style="shape=process;whiteSpace=wrap;html=1;backgroundOutline=1;" vertex="1" parent="1">
          <mxGeometry x="310" y="402.5" width="120" height="60" as="geometry" />
        </mxCell>
        <mxCell id="PJHzrprBZmVnapLB5ji3-8" value="返回成功" style="whiteSpace=wrap;html=1;" vertex="1" parent="1">
          <mxGeometry x="310" y="542.5" width="120" height="60" as="geometry" />
        </mxCell>
      </root>
    </mxGraphModel>
  </diagram>
</mxfile>
